<svg width="40" height="40" viewBox="0 0 40 40" fill="none" xmlns="http://www.w3.org/2000/svg">
    <rect width="40" height="40" fill="#1E1E1E"/>
    <rect id="Rectangle 1" width="40" height="40" rx="10" fill="black"/>
    <path id="MF"
          d="M8.1625 30V10H12.7813L13.925 20.1625L14.7 27.8062H15.0063L15.7875 20.1687L16.9 10H21.55V30H21.0125V10.4375H17.3625L16.25 20.5062L15.4313 28.2437H14.2875L13.4688 20.5062L12.3188 10.4375H8.7V30H8.1625ZM10.375 30L10.275 21.9375L9.88125 11.7562H11.025L12.1813 21.9125L12.9938 29.5625H16.7125L17.5313 21.9062L18.6813 11.7562H19.8313L19.4438 21.9375L19.3438 30H18.8L18.9 22.3625L19.3563 12.1937H19.0875L18 22.3437L17.2 30H12.5125L11.7188 22.3437L10.6313 12.1937H10.3563L10.8125 22.3625L10.9125 30H10.375ZM9.24375 30L9.19375 20.9812L9.01875 10.875H11.8813L13.05 20.8375L13.8375 28.6812H15.8438L16.6625 20.8375L17.8438 10.875H20.6938L20.525 20.9812L20.475 30H19.9313L19.9813 21.5312L20.1875 11.3187H18.3L17.1125 21.4062L16.2813 29.125H13.4L12.6 21.4062L11.4313 11.3187H9.53125L9.73125 21.5312L9.78125 30H9.24375ZM23.8852 30V10H31.0289V10.475H24.4227V30H23.8852ZM26.0477 30V20.5875H30.7789V21.0625H26.5852V30H26.0477ZM24.9664 30V10.9437H31.0289V11.4187H25.5039V19.6437H30.7789V20.1187H25.5039V30H24.9664ZM26.0477 19.175V11.8875H31.0289V12.3625H26.5852V18.7H30.7789V19.175H26.0477Z"
          fill="#F5672A"/>
</svg>
