<svg width="40" height="40" viewBox="0 0 40 40" fill="none" xmlns="http://www.w3.org/2000/svg">
<rect width="40" height="40" fill="#1E1E1E"/>
<rect id="Rectangle 1" width="40" height="40" rx="10" fill="black"/>
<path id="FM" d="M8.1625 30V10H15.3063V10.475H8.7V30H8.1625ZM10.325 30V20.5875H15.0563V21.0625H10.8625V30H10.325ZM9.24375 30V10.9437H15.3063V11.4187H9.78125V19.6437H15.0563V20.1187H9.78125V30H9.24375ZM10.325 19.175V11.8875H15.3063V12.3625H10.8625V18.7H15.0563V19.175H10.325ZM16.9027 30V10H21.5215L22.6652 20.1625L23.4402 27.8062H23.7465L24.5277 20.1687L25.6402 10H30.2902V30H29.7527V10.4375H26.1027L24.9902 20.5062L24.1715 28.2437H23.0277L22.209 20.5062L21.059 10.4375H17.4402V30H16.9027ZM19.1152 30L19.0152 21.9375L18.6215 11.7562H19.7652L20.9215 21.9125L21.734 29.5625H25.4527L26.2715 21.9062L27.4215 11.7562H28.5715L28.184 21.9375L28.084 30H27.5402L27.6402 22.3625L28.0965 12.1937H27.8277L26.7402 22.3437L25.9402 30H21.2527L20.459 22.3437L19.3715 12.1937H19.0965L19.5527 22.3625L19.6527 30H19.1152ZM17.984 30L17.934 20.9812L17.759 10.875H20.6215L21.7902 20.8375L22.5777 28.6812H24.584L25.4027 20.8375L26.584 10.875H29.434L29.2652 20.9812L29.2152 30H28.6715L28.7215 21.5312L28.9277 11.3187H27.0402L25.8527 21.4062L25.0215 29.125H22.1402L21.3402 21.4062L20.1715 11.3187H18.2715L18.4715 21.5312L18.5215 30H17.984Z" fill="#F5672A"/>
</svg>
